<svg width="489" height="714" xmlns="http://www.w3.org/2000/svg" xmlns:xlink="http://www.w3.org/1999/xlink" xml:space="preserve" overflow="hidden"><defs><linearGradient x1="905.5" y1="761" x2="905.5" y2="1475" gradientUnits="userSpaceOnUse" spreadMethod="reflect" id="fill0"><stop offset="0" stop-color="#F0F8FD"/><stop offset="0.29" stop-color="#4E95D9"/><stop offset="0.8" stop-color="#4E95D9"/><stop offset="1" stop-color="#A6CAEC"/></linearGradient><linearGradient x1="905.5" y1="761" x2="905.5" y2="1475" gradientUnits="userSpaceOnUse" spreadMethod="reflect" id="fill1"><stop offset="0" stop-color="#F0F8FD"/><stop offset="0.29" stop-color="#4E95D9"/><stop offset="0.8" stop-color="#4E95D9"/><stop offset="1" stop-color="#A6CAEC"/></linearGradient><linearGradient x1="905.5" y1="761" x2="905.5" y2="1475" gradientUnits="userSpaceOnUse" spreadMethod="reflect" id="fill2"><stop offset="0" stop-color="#F0F8FD"/><stop offset="0.29" stop-color="#4E95D9"/><stop offset="0.8" stop-color="#4E95D9"/><stop offset="1" stop-color="#A6CAEC"/></linearGradient></defs><g transform="translate(-661 -761)"><path d="M938.019 1107 952.458 1111.48C1020.36 1140.2 1068 1207.44 1068 1285.81 1068 1390.3 983.302 1475 878.821 1475 859.231 1475 840.337 1472.02 822.566 1466.49L801 1458 819.388 1437.2 825.509 1436.58C877.037 1426.04 915.798 1380.44 915.798 1325.8 915.798 1271.15 877.037 1225.55 825.509 1215.01L817.297 1214.18 805.533 1169.18Z" fill="url(#fill0)" fill-rule="evenodd"/><path d="M1091.41 761 1104.65 761 1111.79 770.06C1135.91 805.678 1150 848.616 1150 894.835 1150 987.274 1093.66 1066.59 1013.36 1100.47L1005.17 1103 1011.68 1099.61C1049.24 1075.27 1073.93 1034.05 1073.93 987.303 1073.93 931.203 1038.37 883.069 987.704 862.509L973 858.13 973 831.221 985.432 826.979 986.372 827.062C1049.34 838.281 1099.26 887.048 1112.03 949.315L1113.6 964.825 1118.24 940.948C1123.65 895.403 1114.26 847.075 1089.9 803.759L1072.32 778.981Z" fill="url(#fill1)" fill-rule="evenodd"/><path d="M697.131 882 704.861 901.557C720.312 933.525 747.084 959.032 779.991 972.909L803.885 980.303 803.885 962.776 804.805 941.204 812.285 909.663 830.287 909.663 849.158 922.691 848.174 926.008C845.422 940.071 843.978 954.632 843.978 969.546 843.978 999.374 849.757 1027.79 860.207 1053.64L877 1086 862.928 1069C843.452 1049.58 821.19 1032.94 796.791 1019.73L762.919 1004.47 762.919 1004.33 756.242 1001.71 747.137 996.489 742.579 995.078C700.207 977.211 668.896 938.378 661.73 891.624L661 882Z" fill="url(#fill2)" fill-rule="evenodd"/></g></svg>