<svg width="1044" height="1044" xmlns="http://www.w3.org/2000/svg" xmlns:xlink="http://www.w3.org/1999/xlink" xml:space="preserve" overflow="hidden"><g transform="translate(-2897 -146)"><path d="M3006.5 359.169C3006.5 283.137 3068.14 221.5 3144.17 221.5L3694.83 221.5C3770.86 221.5 3832.5 283.137 3832.5 359.169L3832.5 962.83C3832.5 1038.86 3770.86 1100.5 3694.83 1100.5L3144.17 1100.5C3068.14 1100.5 3006.5 1038.86 3006.5 962.83Z" stroke="#FFFFFF" stroke-width="20.625" stroke-miterlimit="8" fill="#FFFFFF" fill-rule="evenodd"/><path d="M3468.75 566.5 3490.27 573.187C3591.48 616.034 3662.5 716.343 3662.5 833.253 3662.5 989.134 3536.25 1115.5 3380.5 1115.5 3351.3 1115.5 3323.14 1111.06 3296.65 1102.81L3264.5 1090.13 3291.91 1059.11 3301.03 1058.19C3377.84 1042.46 3435.62 974.438 3435.62 892.91 3435.62 811.383 3377.84 743.362 3301.03 727.631L3288.79 726.395 3271.26 659.261Z" stroke="#FFFFFF" stroke-width="6.875" stroke-miterlimit="8" fill-rule="evenodd"/><path d="M3637.24 221.5 3650.41 221.5 3657.51 230.533C3681.49 266.047 3695.5 308.859 3695.5 354.944 3695.5 447.113 3639.48 526.193 3559.63 559.973L3551.49 562.5 3557.97 559.12C3595.31 534.852 3619.86 493.755 3619.86 447.141 3619.86 391.205 3584.5 343.212 3534.12 322.712L3519.5 318.346 3519.5 291.515 3531.86 287.286 3532.8 287.369C3595.41 298.555 3645.05 347.18 3657.75 409.264L3659.31 424.729 3663.91 400.921C3669.29 355.51 3659.96 307.324 3635.74 264.134L3618.26 239.428Z" stroke="#FFFFFF" stroke-width="6.875" stroke-miterlimit="8" fill-rule="evenodd"/><path d="M3154.63 326.5 3162.36 346.153C3177.81 378.278 3204.58 403.91 3237.49 417.854L3261.39 425.285 3261.39 407.672 3262.3 385.994 3269.79 354.299 3287.79 354.299 3306.66 367.39 3305.67 370.724C3302.92 384.856 3301.48 399.488 3301.48 414.475 3301.48 444.449 3307.26 473.004 3317.71 498.977L3334.5 531.5 3320.43 514.413C3300.95 494.901 3278.69 478.181 3254.29 464.902L3220.42 449.57 3220.42 449.429 3213.74 446.793 3204.64 441.55 3200.08 440.132C3157.71 422.178 3126.4 383.154 3119.23 336.171L3118.5 326.5Z" stroke="#FFFFFF" stroke-width="6.875" stroke-miterlimit="8" fill-rule="evenodd"/></g></svg>