<svg width="1044" height="1044" xmlns="http://www.w3.org/2000/svg" xmlns:xlink="http://www.w3.org/1999/xlink" xml:space="preserve" overflow="hidden"><g transform="translate(-1762 -146)"><path d="M1871.5 359.169C1871.5 283.137 1933.14 221.5 2009.17 221.5L2559.83 221.5C2635.86 221.5 2697.5 283.137 2697.5 359.169L2697.5 962.83C2697.5 1038.86 2635.86 1100.5 2559.83 1100.5L2009.17 1100.5C1933.14 1100.5 1871.5 1038.86 1871.5 962.83Z" stroke="#FFFFFF" stroke-width="20.625" stroke-miterlimit="8" fill-rule="evenodd"/><path d="M2333.75 566.5 2355.27 573.187C2456.48 616.034 2527.5 716.343 2527.5 833.253 2527.5 989.134 2401.25 1115.5 2245.5 1115.5 2216.3 1115.5 2188.14 1111.06 2161.65 1102.81L2129.5 1090.13 2156.91 1059.11 2166.03 1058.19C2242.84 1042.46 2300.62 974.438 2300.62 892.91 2300.62 811.383 2242.84 743.362 2166.03 727.631L2153.79 726.395 2136.26 659.261Z" stroke="#000000" stroke-width="6.875" stroke-miterlimit="8" fill="#FFFFFF" fill-rule="evenodd"/><path d="M2502.24 221.5 2515.41 221.5 2522.51 230.533C2546.49 266.047 2560.5 308.859 2560.5 354.944 2560.5 447.113 2504.48 526.193 2424.63 559.973L2416.49 562.5 2422.97 559.12C2460.31 534.852 2484.85 493.755 2484.85 447.141 2484.85 391.205 2449.5 343.212 2399.12 322.712L2384.5 318.346 2384.5 291.515 2396.86 287.286 2397.8 287.369C2460.41 298.555 2510.05 347.18 2522.75 409.264L2524.31 424.729 2528.91 400.921C2534.29 355.51 2524.96 307.324 2500.74 264.134L2483.26 239.428Z" stroke="#000000" stroke-width="6.875" stroke-miterlimit="8" fill="#FFFFFF" fill-rule="evenodd"/><path d="M2019.63 326.5 2027.36 346.153C2042.81 378.278 2069.58 403.91 2102.49 417.854L2126.39 425.285 2126.39 407.672 2127.3 385.994 2134.79 354.299 2152.79 354.299 2171.66 367.39 2170.67 370.724C2167.92 384.856 2166.48 399.488 2166.48 414.475 2166.48 444.449 2172.26 473.004 2182.71 498.977L2199.5 531.5 2185.43 514.413C2165.95 494.901 2143.69 478.181 2119.29 464.902L2085.42 449.57 2085.42 449.429 2078.74 446.793 2069.64 441.55 2065.08 440.132C2022.71 422.178 1991.4 383.154 1984.23 336.171L1983.5 326.5Z" stroke="#000000" stroke-width="6.875" stroke-miterlimit="8" fill="#FFFFFF" fill-rule="evenodd"/></g></svg>